<?xml version="1.0" encoding="UTF-8" standalone="no"?>
<!-- Created with Inkscape (http://www.inkscape.org/) -->

<svg
   xmlns:dc="http://purl.org/dc/elements/1.1/"
   xmlns:cc="http://creativecommons.org/ns#"
   xmlns:rdf="http://www.w3.org/1999/02/22-rdf-syntax-ns#"
   xmlns:svg="http://www.w3.org/2000/svg"
   xmlns="http://www.w3.org/2000/svg"
   xmlns:sodipodi="http://sodipodi.sourceforge.net/DTD/sodipodi-0.dtd"
   xmlns:inkscape="http://www.inkscape.org/namespaces/inkscape"
   width="744.09448819"
   height="1052.3622047"
   id="svg3030"
   version="1.1"
   inkscape:version="0.48.4 r9939"
   sodipodi:docname="New document 2">
  <defs
     id="defs3032" />
  <sodipodi:namedview
     id="base"
     pagecolor="#ffffff"
     bordercolor="#666666"
     borderopacity="1.0"
     inkscape:pageopacity="0.0"
     inkscape:pageshadow="2"
     inkscape:zoom="1"
     inkscape:cx="436.0393"
     inkscape:cy="722.23391"
     inkscape:document-units="px"
     inkscape:current-layer="layer1"
     showgrid="true"
     inkscape:window-width="1920"
     inkscape:window-height="1030"
     inkscape:window-x="-8"
     inkscape:window-y="-8"
     inkscape:window-maximized="1">
    <inkscape:grid
       type="xygrid"
       id="grid3071" />
  </sodipodi:namedview>
  <metadata
     id="metadata3035">
    <rdf:RDF>
      <cc:Work
         rdf:about="">
        <dc:format>image/svg+xml</dc:format>
        <dc:type
           rdf:resource="http://purl.org/dc/dcmitype/StillImage" />
        <dc:title></dc:title>
      </cc:Work>
    </rdf:RDF>
  </metadata>
  <g
     inkscape:label="Base"
     inkscape:groupmode="layer"
     id="layer1"
     style="opacity:1">
    <g
       id="g3054"
       style="fill:#999999"
       transform="matrix(7.9884599,0,0,10.589305,-2982.6532,-4984.9828)">
      <path
         sodipodi:nodetypes="sssss"
         inkscape:connector-curvature="0"
         id="rect3037"
         d="m 410,487.36218 c 2,-6 18,-6 20,0 1.90029,5.70088 5.30757,11.24605 10,15 10,8 -50,8 -40,0 4.69243,-3.75395 8.09971,-9.29913 10,-15 z"
         style="fill:#999999;fill-opacity:1" />
      <path
         sodipodi:nodetypes="ccssssssc"
         inkscape:connector-curvature="0"
         id="rect3039"
         d="m 400,502.36218 40,0 c 0,0 10,29.99999 0,30 -4,0 -6.27483,-4.89053 -10,-5 -2.5375,-0.0746 -5,3 -7,3 -3.33333,0 -2.66667,0 -6,0 -2,0 -4.4625,-3.07457 -7,-3 -3.72517,0.10947 -6.27322,5 -10,5 -9,0 0,-30 0,-30 z"
         style="fill:#999999;fill-opacity:1" />
      <path
         sodipodi:nodetypes="sccss"
         inkscape:connector-curvature="0"
         id="rect3041"
         d="m 375,522.36218 c 4,-3 25,-20 25,-20 l 0,30 c 0,0 -14,0 -20,0 -3.72678,0 -7.98142,-7.76393 -5,-10 z"
         style="fill:#999999;fill-opacity:1" />
      <path
         sodipodi:nodetypes="csscc"
         inkscape:connector-curvature="0"
         id="rect3045"
         d="m 440,502.36218 c 0,0 21,17 25,20 2.98142,2.23607 -1.27322,10 -5,10 -5,0 -20,0 -20,0 z"
         style="fill:#999999;fill-opacity:1" />
      <path
         sodipodi:nodetypes="ssccs"
         inkscape:connector-curvature="0"
         id="rect3051"
         d="m 414,474.36218 c 0.97014,-3.88057 11.02986,-3.88057 12,0 1,4 4,13 4,13 l -20,0 c 0,0 3,-9 4,-13 z"
         style="fill:#999999;fill-opacity:1" />
    </g>
  </g>
</svg>
