<?xml version="1.0" encoding="UTF-8" standalone="no"?>
<!-- Created with Inkscape (http://www.inkscape.org/) -->

<svg
   xmlns:dc="http://purl.org/dc/elements/1.1/"
   xmlns:cc="http://creativecommons.org/ns#"
   xmlns:rdf="http://www.w3.org/1999/02/22-rdf-syntax-ns#"
   xmlns:svg="http://www.w3.org/2000/svg"
   xmlns="http://www.w3.org/2000/svg"
   xmlns:sodipodi="http://sodipodi.sourceforge.net/DTD/sodipodi-0.dtd"
   xmlns:inkscape="http://www.inkscape.org/namespaces/inkscape"
   width="744.09448819"
   height="1052.3622047"
   id="svg2"
   version="1.1"
   inkscape:version="0.48.3.1 r9886"
   sodipodi:docname="shiptest2.svg"
   inkscape:export-filename="/home/ryan/github/Invadaga/Assets/Textures/shiptest2.png"
   inkscape:export-xdpi="100"
   inkscape:export-ydpi="100">
  <defs
     id="defs4">
    <inkscape:perspective
       sodipodi:type="inkscape:persp3d"
       inkscape:vp_x="0 : 526.18109 : 1"
       inkscape:vp_y="0 : 1000 : 0"
       inkscape:vp_z="744.09448 : 526.18109 : 1"
       inkscape:persp3d-origin="372.04724 : 350.78739 : 1"
       id="perspective3061" />
  </defs>
  <sodipodi:namedview
     id="base"
     pagecolor="#ffffff"
     bordercolor="#666666"
     borderopacity="1.0"
     inkscape:pageopacity="0.0"
     inkscape:pageshadow="2"
     inkscape:zoom="15.839192"
     inkscape:cx="433.91376"
     inkscape:cy="611.44946"
     inkscape:document-units="px"
     inkscape:current-layer="layer1"
     showgrid="false"
     inkscape:window-width="1330"
     inkscape:window-height="755"
     inkscape:window-x="33"
     inkscape:window-y="130"
     inkscape:window-maximized="0">
    <inkscape:grid
       type="xygrid"
       id="grid2989" />
  </sodipodi:namedview>
  <metadata
     id="metadata7">
    <rdf:RDF>
      <cc:Work
         rdf:about="">
        <dc:format>image/svg+xml</dc:format>
        <dc:type
           rdf:resource="http://purl.org/dc/dcmitype/StillImage" />
        <dc:title></dc:title>
      </cc:Work>
    </rdf:RDF>
  </metadata>
  <g
     inkscape:label="Layer 1"
     inkscape:groupmode="layer"
     id="layer1">
    <path
       sodipodi:type="arc"
       style="fill:#ff0000;fill-opacity:1"
       id="path3079"
       sodipodi:cx="443.03571"
       sodipodi:cy="388.07648"
       sodipodi:rx="15.714286"
       sodipodi:ry="20.357143"
       d="m 458.74999,388.07648 a 15.714286,20.357143 0 1 1 -31.42857,0 15.714286,20.357143 0 1 1 31.42857,0 z"
       transform="matrix(1.5194977,0,0,-1.7205206,-223.99798,1101.5435)" />
    <path
       sodipodi:type="arc"
       style="fill:#00ffff;fill-opacity:1"
       id="path3059"
       sodipodi:cx="443.57144"
       sodipodi:cy="384.86218"
       sodipodi:rx="10.714286"
       sodipodi:ry="11.785714"
       d="m 454.28573,384.86218 a 10.714286,11.785714 0 1 1 -21.42857,0 10.714286,11.785714 0 1 1 21.42857,0 z"
       transform="matrix(1.1380068,0,0,-1.1780141,-55.695141,897.8462)" />
    <rect
       style="fill:#00ffff;fill-opacity:1"
       id="rect3077"
       width="24.284254"
       height="19.773811"
       x="436.89923"
       y="-450.46835"
       ry="4.1418419"
       transform="scale(1,-1)" />
    <path
       transform="matrix(1.1376104,0.03003803,0.03109405,-1.1776036,50.080157,891.98879)"
       sodipodi:type="arc"
       style="fill:#ff0000;fill-opacity:1"
       id="path3083-0"
       sodipodi:cx="393.75"
       sodipodi:cy="423.61218"
       sodipodi:rx="5.8928571"
       sodipodi:ry="12.857142"
       d="m 399.64286,423.61218 a 5.8928571,12.857142 0 1 1 -11.78572,0 5.8928571,12.857142 0 1 1 11.78572,0 z" />
    <rect
       style="fill:#ff0000;fill-opacity:1;stroke:#ff0000;stroke-width:1.15783775;stroke-opacity:1"
       id="rect3855-1"
       width="0.20321549"
       height="10.412803"
       x="521.49396"
       y="-413.52802"
       ry="0.10517983"
       transform="matrix(0.99965158,0.0263953,0.0263953,-0.99965158,0,0)" />
    <path
       transform="matrix(1.1376104,0.03003803,0.03109405,-1.1776036,50.080157,891.98879)"
       sodipodi:type="arc"
       style="fill:#ff0000;fill-opacity:1;stroke:#ff0000;stroke-opacity:1"
       id="path3857-2"
       sodipodi:cx="393.70535"
       sodipodi:cy="403.43362"
       sodipodi:rx="1.1160715"
       sodipodi:ry="1.1607143"
       d="m 394.82142,403.43362 a 1.1160715,1.1607143 0 1 1 -2.23214,0 1.1160715,1.1607143 0 1 1 2.23214,0 z" />
    <rect
       style="fill:#ff0000;fill-opacity:1;stroke:#ff0000;stroke-width:1.15783775;stroke-opacity:1"
       id="rect3855-1-5"
       width="0.20321549"
       height="10.412803"
       x="448.93976"
       y="-476.18491"
       ry="0.10517983"
       transform="scale(1,-1)" />
    <path
       transform="matrix(1.1380068,0,0,-1.1780141,1.0527933,953.01302)"
       sodipodi:type="arc"
       style="fill:#ff0000;fill-opacity:1;stroke:#ff0000;stroke-opacity:1"
       id="path3857-2-2"
       sodipodi:cx="393.70535"
       sodipodi:cy="403.43362"
       sodipodi:rx="1.1160715"
       sodipodi:ry="1.1607143"
       d="m 394.82142,403.43362 a 1.1160715,1.1607143 0 1 1 -2.23214,0 1.1160715,1.1607143 0 1 1 2.23214,0 z" />
    <path
       style="opacity:0.99137932;fill:#ff0000;stroke:#ff0000;stroke-width:0.34735131;stroke-linecap:butt;stroke-linejoin:miter;stroke-miterlimit:4;stroke-opacity:1;stroke-dasharray:none"
       d="m 469.44634,426.17045 c 18.39969,-0.59888 31.56479,-10.30114 39.35199,-29.02451 -12.05837,8.85945 -18.99878,18.65307 -40.35101,18.05219 z"
       id="path3924"
       inkscape:connector-curvature="0"
       sodipodi:nodetypes="cccc" />
    <path
       sodipodi:type="arc"
       style="fill:#000000;fill-opacity:1;stroke:#ff0000;stroke-width:0.30000001;stroke-miterlimit:4;stroke-opacity:1;stroke-dasharray:none"
       id="path3926"
       sodipodi:cx="462.85715"
       sodipodi:cy="418.43362"
       sodipodi:rx="2.5"
       sodipodi:ry="2.8571429"
       d="m 465.35715,418.43362 a 2.5,2.8571429 0 1 1 -5,0 2.5,2.8571429 0 1 1 5,0 z"
       transform="matrix(1.2663218,0.88685076,0.80855432,-1.1545233,-448.01271,492.59914)" />
    <path
       sodipodi:type="arc"
       style="fill:#000000;fill-opacity:1;stroke:#ff0000;stroke-width:0.30000001;stroke-miterlimit:4;stroke-opacity:1;stroke-dasharray:none"
       id="path3926-5"
       sodipodi:cx="462.85715"
       sodipodi:cy="418.43362"
       sodipodi:rx="2.5"
       sodipodi:ry="2.8571429"
       d="m 465.35715,418.43362 a 2.5,2.8571429 0 1 1 -5,0 2.5,2.8571429 0 1 1 5,0 z"
       transform="matrix(1.1485576,0.80437627,0.72329339,-1.0327806,-349.26277,477.74097)" />
    <path
       sodipodi:type="arc"
       style="fill:#000000;fill-opacity:1;stroke:#ff0000;stroke-width:0.30000001;stroke-miterlimit:4;stroke-opacity:1;stroke-dasharray:none"
       id="path3926-5-6"
       sodipodi:cx="462.85715"
       sodipodi:cy="418.43362"
       sodipodi:rx="2.5"
       sodipodi:ry="2.8571429"
       d="m 465.35715,418.43362 a 2.5,2.8571429 0 1 1 -5,0 2.5,2.8571429 0 1 1 5,0 z"
       transform="matrix(1.0069324,0.70519102,0.62817587,-0.89696353,-236.52195,463.13325)" />
    <path
       sodipodi:type="arc"
       style="fill:#000000;fill-opacity:1;stroke:#ff0000;stroke-width:0.30000001;stroke-miterlimit:4;stroke-opacity:1;stroke-dasharray:none"
       id="path3926-5-6-7"
       sodipodi:cx="462.85715"
       sodipodi:cy="418.43362"
       sodipodi:rx="2.5"
       sodipodi:ry="2.8571429"
       d="m 465.35715,418.43362 a 2.5,2.8571429 0 1 1 -5,0 2.5,2.8571429 0 1 1 5,0 z"
       transform="matrix(0.84865918,0.59434657,0.54361545,-0.77622091,-122.38935,459.35092)" />
    <path
       sodipodi:type="arc"
       style="fill:#000000;fill-opacity:1;stroke:#ff0000;stroke-width:0.30000001;stroke-miterlimit:4;stroke-opacity:1;stroke-dasharray:none"
       id="path3926-5-6-7-4"
       sodipodi:cx="462.85715"
       sodipodi:cy="418.43362"
       sodipodi:rx="2.5"
       sodipodi:ry="2.8571429"
       d="m 465.35715,418.43362 a 2.5,2.8571429 0 1 1 -5,0 2.5,2.8571429 0 1 1 5,0 z"
       transform="matrix(0.56452809,0.39535934,0.37393936,-0.5339428,84.071437,445.941)" />
    <path
       transform="matrix(-1.1376104,0.03003803,-0.03109405,-1.1776036,847.29336,892.31346)"
       sodipodi:type="arc"
       style="fill:#ff0000;fill-opacity:1"
       id="path3083-0-9"
       sodipodi:cx="393.75"
       sodipodi:cy="423.61218"
       sodipodi:rx="5.8928571"
       sodipodi:ry="12.857142"
       d="m 399.64286,423.61218 a 5.8928571,12.857142 0 1 1 -11.78572,0 5.8928571,12.857142 0 1 1 11.78572,0 z" />
    <rect
       style="fill:#ff0000;fill-opacity:1;stroke:#ff0000;stroke-width:1.15783775;stroke-opacity:1"
       id="rect3855-1-9"
       width="0.20321549"
       height="10.412803"
       x="-375.55838"
       y="-437.53903"
       ry="0.10517983"
       transform="matrix(-0.99965158,0.0263953,-0.0263953,-0.99965158,0,0)" />
    <path
       transform="matrix(-1.1376104,0.03003803,-0.03109405,-1.1776036,847.29336,892.31346)"
       sodipodi:type="arc"
       style="fill:#ff0000;fill-opacity:1;stroke:#ff0000;stroke-opacity:1"
       id="path3857-2-5"
       sodipodi:cx="393.70535"
       sodipodi:cy="403.43362"
       sodipodi:rx="1.1160715"
       sodipodi:ry="1.1607143"
       d="m 394.82142,403.43362 a 1.1160715,1.1607143 0 1 1 -2.23214,0 1.1160715,1.1607143 0 1 1 2.23214,0 z" />
    <path
       style="opacity:0.99137932;fill:#ff0000;stroke:#ff0000;stroke-width:0.34735131;stroke-linecap:butt;stroke-linejoin:miter;stroke-miterlimit:4;stroke-opacity:1;stroke-dasharray:none"
       d="m 427.92717,426.49513 c -18.39969,-0.59888 -31.56479,-10.30114 -39.35199,-29.02452 12.05837,8.85946 18.99878,18.65308 40.35101,18.0522 z"
       id="path3924-9"
       inkscape:connector-curvature="0"
       sodipodi:nodetypes="cccc" />
    <path
       sodipodi:type="arc"
       style="fill:#000000;fill-opacity:1;stroke:#ff0000;stroke-width:0.30000001;stroke-miterlimit:4;stroke-opacity:1;stroke-dasharray:none"
       id="path3926-8"
       sodipodi:cx="462.85715"
       sodipodi:cy="418.43362"
       sodipodi:rx="2.5"
       sodipodi:ry="2.8571429"
       d="m 465.35715,418.43362 a 2.5,2.8571429 0 1 1 -5,0 2.5,2.8571429 0 1 1 5,0 z"
       transform="matrix(-1.2663218,0.88685076,-0.80855432,-1.1545233,1345.3863,492.92381)" />
    <path
       sodipodi:type="arc"
       style="fill:#000000;fill-opacity:1;stroke:#ff0000;stroke-width:0.30000001;stroke-miterlimit:4;stroke-opacity:1;stroke-dasharray:none"
       id="path3926-5-01"
       sodipodi:cx="462.85715"
       sodipodi:cy="418.43362"
       sodipodi:rx="2.5"
       sodipodi:ry="2.8571429"
       d="m 465.35715,418.43362 a 2.5,2.8571429 0 1 1 -5,0 2.5,2.8571429 0 1 1 5,0 z"
       transform="matrix(-1.1485576,0.80437627,-0.72329339,-1.0327806,1246.6363,478.06565)" />
    <path
       sodipodi:type="arc"
       style="fill:#000000;fill-opacity:1;stroke:#ff0000;stroke-width:0.30000001;stroke-miterlimit:4;stroke-opacity:1;stroke-dasharray:none"
       id="path3926-5-6-20"
       sodipodi:cx="462.85715"
       sodipodi:cy="418.43362"
       sodipodi:rx="2.5"
       sodipodi:ry="2.8571429"
       d="m 465.35715,418.43362 a 2.5,2.8571429 0 1 1 -5,0 2.5,2.8571429 0 1 1 5,0 z"
       transform="matrix(-1.0069324,0.70519102,-0.62817587,-0.89696353,1133.8955,463.45793)" />
    <path
       sodipodi:type="arc"
       style="fill:#000000;fill-opacity:1;stroke:#ff0000;stroke-width:0.30000001;stroke-miterlimit:4;stroke-opacity:1;stroke-dasharray:none"
       id="path3926-5-6-7-0"
       sodipodi:cx="462.85715"
       sodipodi:cy="418.43362"
       sodipodi:rx="2.5"
       sodipodi:ry="2.8571429"
       d="m 465.35715,418.43362 a 2.5,2.8571429 0 1 1 -5,0 2.5,2.8571429 0 1 1 5,0 z"
       transform="matrix(-0.84865918,0.59434657,-0.54361545,-0.77622091,1019.7629,459.6756)" />
    <path
       sodipodi:type="arc"
       style="fill:#000000;fill-opacity:1;stroke:#ff0000;stroke-width:0.30000001;stroke-miterlimit:4;stroke-opacity:1;stroke-dasharray:none"
       id="path3926-5-6-7-4-1"
       sodipodi:cx="462.85715"
       sodipodi:cy="418.43362"
       sodipodi:rx="2.5"
       sodipodi:ry="2.8571429"
       d="m 465.35715,418.43362 a 2.5,2.8571429 0 1 1 -5,0 2.5,2.8571429 0 1 1 5,0 z"
       transform="matrix(-0.56452809,0.39535934,-0.37393936,-0.5339428,813.30208,446.26568)" />
    <rect
       style="opacity:0.99137932;fill:#e6e6e6;fill-opacity:1;stroke:#000000;stroke-width:0;stroke-miterlimit:4;stroke-opacity:1;stroke-dasharray:none"
       id="rect3134"
       width="5.8368378"
       height="7.9796948"
       x="441.0976"
       y="445.37762"
       ry="1.7938763" />
  </g>
</svg>
