<?xml version="1.0" encoding="UTF-8" standalone="no"?>
<!-- Created with Inkscape (http://www.inkscape.org/) -->

<svg
   xmlns:dc="http://purl.org/dc/elements/1.1/"
   xmlns:cc="http://creativecommons.org/ns#"
   xmlns:rdf="http://www.w3.org/1999/02/22-rdf-syntax-ns#"
   xmlns:svg="http://www.w3.org/2000/svg"
   xmlns="http://www.w3.org/2000/svg"
   xmlns:sodipodi="http://sodipodi.sourceforge.net/DTD/sodipodi-0.dtd"
   xmlns:inkscape="http://www.inkscape.org/namespaces/inkscape"
   width="744.09448819"
   height="1052.3622047"
   id="svg2"
   version="1.1"
   inkscape:version="0.48.4 r9939"
   sodipodi:docname="shiptest2.svg">
  <defs
     id="defs4">
    <inkscape:perspective
       sodipodi:type="inkscape:persp3d"
       inkscape:vp_x="0 : 526.18109 : 1"
       inkscape:vp_y="0 : 1000 : 0"
       inkscape:vp_z="744.09448 : 526.18109 : 1"
       inkscape:persp3d-origin="372.04724 : 350.78739 : 1"
       id="perspective3061" />
  </defs>
  <sodipodi:namedview
     id="base"
     pagecolor="#ffffff"
     bordercolor="#666666"
     borderopacity="1.0"
     inkscape:pageopacity="0.0"
     inkscape:pageshadow="2"
     inkscape:zoom="2.8"
     inkscape:cx="425.4489"
     inkscape:cy="627.50431"
     inkscape:document-units="px"
     inkscape:current-layer="layer1"
     showgrid="false"
     inkscape:window-width="1330"
     inkscape:window-height="755"
     inkscape:window-x="0"
     inkscape:window-y="35"
     inkscape:window-maximized="0">
    <inkscape:grid
       type="xygrid"
       id="grid2989" />
  </sodipodi:namedview>
  <metadata
     id="metadata7">
    <rdf:RDF>
      <cc:Work
         rdf:about="">
        <dc:format>image/svg+xml</dc:format>
        <dc:type
           rdf:resource="http://purl.org/dc/dcmitype/StillImage" />
        <dc:title />
      </cc:Work>
    </rdf:RDF>
  </metadata>
  <g
     inkscape:label="Layer 1"
     inkscape:groupmode="layer"
     id="layer1">
    <path
       sodipodi:type="arc"
       style="fill:#ff0000;fill-opacity:1"
       id="path3079"
       sodipodi:cx="443.03571"
       sodipodi:cy="388.07648"
       sodipodi:rx="15.714286"
       sodipodi:ry="20.357143"
       d="m 458.74999,388.07648 a 15.714286,20.357143 0 1 1 -31.42857,0 15.714286,20.357143 0 1 1 31.42857,0 z"
       transform="matrix(1.5194977,0,0,-1.7205206,-223.99798,1101.5435)" />
    <path
       sodipodi:type="arc"
       style="fill:#008080;fill-opacity:1"
       id="path3059"
       sodipodi:cx="443.57144"
       sodipodi:cy="384.86218"
       sodipodi:rx="10.714286"
       sodipodi:ry="11.785714"
       d="m 454.28573,384.86218 a 10.714286,11.785714 0 1 1 -21.42857,0 10.714286,11.785714 0 1 1 21.42857,0 z"
       transform="matrix(1.1380068,0,0,-1.1780141,-55.695141,897.8462)" />
    <rect
       style="fill:#008080;fill-opacity:1"
       id="rect3077"
       width="24.284254"
       height="19.773811"
       x="436.89923"
       y="-450.46835"
       ry="4.1418419"
       transform="scale(1,-1)" />
    <path
       transform="matrix(1.1380068,0,0,-1.1780141,40.036279,873.28095)"
       sodipodi:type="arc"
       style="fill:#ff0000;fill-opacity:1"
       id="path3083-0"
       sodipodi:cx="393.75"
       sodipodi:cy="423.61218"
       sodipodi:rx="5.8928571"
       sodipodi:ry="12.857142"
       d="m 399.64286,423.61218 a 5.8928571,12.857142 0 1 1 -11.78572,0 5.8928571,12.857142 0 1 1 11.78572,0 z" />
    <rect
       style="fill:#ff0000;fill-opacity:1;stroke:#ff0000;stroke-width:1.15783775;stroke-opacity:1"
       id="rect3855-1"
       width="0.20321549"
       height="10.412803"
       x="487.92322"
       y="-396.45282"
       ry="0.10517983"
       transform="scale(1,-1)" />
    <path
       transform="matrix(1.1380068,0,0,-1.1780141,40.036279,873.28095)"
       sodipodi:type="arc"
       style="fill:#ff0000;fill-opacity:1;stroke:#ff0000;stroke-opacity:1"
       id="path3857-2"
       sodipodi:cx="393.70535"
       sodipodi:cy="403.43362"
       sodipodi:rx="1.1160715"
       sodipodi:ry="1.1607143"
       d="m 394.82142,403.43362 a 1.1160715,1.1607143 0 1 1 -2.23214,0 1.1160715,1.1607143 0 1 1 2.23214,0 z" />
    <rect
       style="fill:#ff0000;fill-opacity:1;stroke:#ff0000;stroke-width:1.15783775;stroke-opacity:1"
       id="rect3855-1-5"
       width="0.20321549"
       height="10.412803"
       x="448.93976"
       y="-476.18491"
       ry="0.10517983"
       transform="scale(1,-1)" />
    <path
       transform="matrix(1.1380068,0,0,-1.1780141,1.0527933,953.01302)"
       sodipodi:type="arc"
       style="fill:#ff0000;fill-opacity:1;stroke:#ff0000;stroke-opacity:1"
       id="path3857-2-2"
       sodipodi:cx="393.70535"
       sodipodi:cy="403.43362"
       sodipodi:rx="1.1160715"
       sodipodi:ry="1.1607143"
       d="m 394.82142,403.43362 a 1.1160715,1.1607143 0 1 1 -2.23214,0 1.1160715,1.1607143 0 1 1 2.23214,0 z" />
    <path
       style="opacity:0.99137932;fill:#ff0000;stroke:#ff0000;stroke-width:0.34735131;stroke-linecap:butt;stroke-linejoin:miter;stroke-miterlimit:4;stroke-opacity:1;stroke-dasharray:none"
       d="m 466.5687,414.18133 c 14.72767,-11.04547 19.94558,-26.54474 15.58348,-46.3482 -4.79484,14.17404 -4.86167,26.17736 -22.69603,37.93382 z"
       id="path3924"
       inkscape:connector-curvature="0"
       sodipodi:nodetypes="cccc" />
    <path
       sodipodi:type="arc"
       style="fill:#000000;fill-opacity:1;stroke:#ff0000;stroke-width:0.30000001;stroke-miterlimit:4;stroke-opacity:1;stroke-dasharray:none"
       id="path3926"
       sodipodi:cx="462.85715"
       sodipodi:cy="418.43362"
       sodipodi:rx="2.5"
       sodipodi:ry="2.8571429"
       d="m 465.35715,418.43362 a 2.5,2.8571429 0 1 1 -5,0 2.5,2.8571429 0 1 1 5,0 z"
       transform="matrix(1.5459868,0,0,-1.4094979,-246.81777,994.89091)" />
    <path
       sodipodi:type="arc"
       style="fill:#000000;fill-opacity:1;stroke:#ff0000;stroke-width:0.30000001;stroke-miterlimit:4;stroke-opacity:1;stroke-dasharray:none"
       id="path3926-5"
       sodipodi:cx="462.85715"
       sodipodi:cy="418.43362"
       sodipodi:rx="2.5"
       sodipodi:ry="2.8571429"
       d="m 465.35715,418.43362 a 2.5,2.8571429 0 1 1 -5,0 2.5,2.8571429 0 1 1 5,0 z"
       transform="matrix(1.4022146,0,0,-1.2608683,-174.45479,926.07293)" />
    <path
       sodipodi:type="arc"
       style="fill:#000000;fill-opacity:1;stroke:#ff0000;stroke-width:0.30000001;stroke-miterlimit:4;stroke-opacity:1;stroke-dasharray:none"
       id="path3926-5-6"
       sodipodi:cx="462.85715"
       sodipodi:cy="418.43362"
       sodipodi:rx="2.5"
       sodipodi:ry="2.8571429"
       d="m 465.35715,418.43362 a 2.5,2.8571429 0 1 1 -5,0 2.5,2.8571429 0 1 1 5,0 z"
       transform="matrix(1.2293117,0,0,-1.0950564,-90.488169,849.43427)" />
    <path
       sodipodi:type="arc"
       style="fill:#000000;fill-opacity:1;stroke:#ff0000;stroke-width:0.30000001;stroke-miterlimit:4;stroke-opacity:1;stroke-dasharray:none"
       id="path3926-5-6-7"
       sodipodi:cx="462.85715"
       sodipodi:cy="418.43362"
       sodipodi:rx="2.5"
       sodipodi:ry="2.8571429"
       d="m 465.35715,418.43362 a 2.5,2.8571429 0 1 1 -5,0 2.5,2.8571429 0 1 1 5,0 z"
       transform="matrix(1.0360841,0,0,-0.94764796,0.82841599,780.86434)" />
    <path
       sodipodi:type="arc"
       style="fill:#000000;fill-opacity:1;stroke:#ff0000;stroke-width:0.30000001;stroke-miterlimit:4;stroke-opacity:1;stroke-dasharray:none"
       id="path3926-5-6-7-4"
       sodipodi:cx="462.85715"
       sodipodi:cy="418.43362"
       sodipodi:rx="2.5"
       sodipodi:ry="2.8571429"
       d="m 465.35715,418.43362 a 2.5,2.8571429 0 1 1 -5,0 2.5,2.8571429 0 1 1 5,0 z"
       transform="matrix(0.68920314,0,0,-0.65186314,162.24842,651.44461)" />
    <path
       transform="matrix(-1.1380068,0,0,-1.1780141,858.39518,873.39959)"
       sodipodi:type="arc"
       style="fill:#ff0000;fill-opacity:1"
       id="path3083-0-2"
       sodipodi:cx="393.75"
       sodipodi:cy="423.61218"
       sodipodi:rx="5.8928571"
       sodipodi:ry="12.857142"
       d="m 399.64286,423.61218 a 5.8928571,12.857142 0 1 1 -11.78572,0 5.8928571,12.857142 0 1 1 11.78572,0 z" />
    <rect
       style="fill:#ff0000;fill-opacity:1;stroke:#ff0000;stroke-width:1.15783775;stroke-opacity:1"
       id="rect3855-1-8"
       width="0.20321549"
       height="10.412803"
       x="-410.50818"
       y="-396.5715"
       ry="0.10517983"
       transform="scale(-1,-1)" />
    <path
       transform="matrix(-1.1380068,0,0,-1.1780141,858.39518,873.39959)"
       sodipodi:type="arc"
       style="fill:#ff0000;fill-opacity:1;stroke:#ff0000;stroke-opacity:1"
       id="path3857-2-4"
       sodipodi:cx="393.70535"
       sodipodi:cy="403.43362"
       sodipodi:rx="1.1160715"
       sodipodi:ry="1.1607143"
       d="m 394.82142,403.43362 a 1.1160715,1.1607143 0 1 1 -2.23214,0 1.1160715,1.1607143 0 1 1 2.23214,0 z" />
    <path
       style="opacity:0.99137932;fill:#ff0000;stroke:#ff0000;stroke-width:0.34735131;stroke-linecap:butt;stroke-linejoin:miter;stroke-miterlimit:4;stroke-opacity:1;stroke-dasharray:none"
       d="m 431.86276,414.29999 c -14.72768,-11.04548 -19.94558,-26.54475 -15.58348,-46.34821 4.79484,14.17403 4.86166,26.17737 22.69603,37.93381 z"
       id="path3924-1"
       inkscape:connector-curvature="0"
       sodipodi:nodetypes="cccc" />
    <path
       sodipodi:type="arc"
       style="fill:#000000;fill-opacity:1;stroke:#ff0000;stroke-width:0.30000001;stroke-miterlimit:4;stroke-opacity:1;stroke-dasharray:none"
       id="path3926-1"
       sodipodi:cx="462.85715"
       sodipodi:cy="418.43362"
       sodipodi:rx="2.5"
       sodipodi:ry="2.8571429"
       d="m 465.35715,418.43362 a 2.5,2.8571429 0 1 1 -5,0 2.5,2.8571429 0 1 1 5,0 z"
       transform="matrix(-1.5459868,0,0,-1.4094979,1145.2493,995.00955)" />
    <path
       sodipodi:type="arc"
       style="fill:#000000;fill-opacity:1;stroke:#ff0000;stroke-width:0.30000001;stroke-miterlimit:4;stroke-opacity:1;stroke-dasharray:none"
       id="path3926-5-0"
       sodipodi:cx="462.85715"
       sodipodi:cy="418.43362"
       sodipodi:rx="2.5"
       sodipodi:ry="2.8571429"
       d="m 465.35715,418.43362 a 2.5,2.8571429 0 1 1 -5,0 2.5,2.8571429 0 1 1 5,0 z"
       transform="matrix(0,1.4515103,-1.2180472,0,933.53306,-273.23998)" />
    <path
       sodipodi:type="arc"
       style="fill:#000000;fill-opacity:1;stroke:#ff0000;stroke-width:0.30000001;stroke-miterlimit:4;stroke-opacity:1;stroke-dasharray:none"
       id="path3926-5-6-2"
       sodipodi:cx="462.85715"
       sodipodi:cy="418.43362"
       sodipodi:rx="2.5"
       sodipodi:ry="2.8571429"
       d="m 465.35715,418.43362 a 2.5,2.8571429 0 1 1 -5,0 2.5,2.8571429 0 1 1 5,0 z"
       transform="matrix(-1.2293117,0,0,-1.0950564,988.91964,849.55291)" />
    <path
       sodipodi:type="arc"
       style="fill:#000000;fill-opacity:1;stroke:#ff0000;stroke-width:0.30000001;stroke-miterlimit:4;stroke-opacity:1;stroke-dasharray:none"
       id="path3926-5-6-7-3"
       sodipodi:cx="462.85715"
       sodipodi:cy="418.43362"
       sodipodi:rx="2.5"
       sodipodi:ry="2.8571429"
       d="m 465.35715,418.43362 a 2.5,2.8571429 0 1 1 -5,0 2.5,2.8571429 0 1 1 5,0 z"
       transform="matrix(-1.0360841,0,0,-0.94764796,897.60305,780.98298)" />
    <path
       sodipodi:type="arc"
       style="fill:#000000;fill-opacity:1;stroke:#ff0000;stroke-width:0.30000001;stroke-miterlimit:4;stroke-opacity:1;stroke-dasharray:none"
       id="path3926-5-6-7-4-6"
       sodipodi:cx="462.85715"
       sodipodi:cy="418.43362"
       sodipodi:rx="2.5"
       sodipodi:ry="2.8571429"
       d="m 465.35715,418.43362 a 2.5,2.8571429 0 1 1 -5,0 2.5,2.8571429 0 1 1 5,0 z"
       transform="matrix(-0.68920314,0,0,-0.65186314,736.18304,651.56326)" />
  </g>
</svg>
